<svg width="512" height="512" viewBox="0 0 512 512" fill="none" xmlns="http://www.w3.org/2000/svg">
  <rect width="512" height="512" rx="64" fill="#6366F1"/>
  <path d="M128 160C128 142.327 142.327 128 160 128H352C369.673 128 384 142.327 384 160V352C384 369.673 369.673 384 352 384H160C142.327 384 128 369.673 128 352V160Z" fill="white"/>
  <path d="M160 160H352V352H160V160Z" fill="#6366F1"/>
  <circle cx="200" cy="200" r="16" fill="white"/>
  <circle cx="312" cy="200" r="16" fill="white"/>
  <circle cx="200" cy="312" r="16" fill="white"/>
  <circle cx="312" cy="312" r="16" fill="white"/>
  <path d="M200 240H312" stroke="white" stroke-width="8" stroke-linecap="round"/>
  <path d="M200 272H312" stroke="white" stroke-width="8" stroke-linecap="round"/>
  <path d="M200 304H280" stroke="white" stroke-width="8" stroke-linecap="round"/>
</svg> 
